<svg width="40" height="40" viewBox="0 0 40 40" fill="none" xmlns="http://www.w3.org/2000/svg">
<rect width="40" height="40" rx="6.25" fill="white"/>
<path d="M20.7724 25.1057C20.9797 24.8977 21.0834 24.6402 21.0834 24.3333C21.0834 24.0263 20.9794 23.7692 20.7714 23.562C20.5634 23.3547 20.3062 23.2507 20 23.25C19.6938 23.2492 19.4367 23.3532 19.2287 23.562C19.0207 23.7707 18.9167 24.0278 18.9167 24.3333C18.9167 24.6388 19.0207 24.8963 19.2287 25.1057C19.4367 25.3152 19.6938 25.4188 20 25.4166C20.3062 25.4145 20.5637 25.3115 20.7724 25.1057ZM20.7724 20.7713C20.9797 20.564 21.0834 20.3069 21.0834 20V15.6666C21.0834 15.3597 20.9794 15.1026 20.7714 14.8953C20.5634 14.688 20.3062 14.584 20 14.5833C19.6938 14.5826 19.4367 14.6866 19.2287 14.8953C19.0207 15.104 18.9167 15.3611 18.9167 15.6666V20C18.9167 20.3069 19.0207 20.5644 19.2287 20.7724C19.4367 20.9804 19.6938 21.084 20 21.0833C20.3062 21.0826 20.5637 20.9786 20.7724 20.7713ZM20 30.8333C18.5014 30.8333 17.0931 30.5487 15.775 29.9796C14.457 29.4105 13.3104 28.6388 12.3354 27.6645C11.3604 26.6903 10.5887 25.5437 10.0204 24.225C9.45197 22.9062 9.16741 21.4978 9.16669 20C9.16597 18.5021 9.45052 17.0937 10.0204 15.775C10.5902 14.4562 11.3619 13.3097 12.3354 12.3354C13.309 11.3611 14.4555 10.5894 15.775 10.0203C17.0945 9.45118 18.5029 9.16663 20 9.16663C21.4972 9.16663 22.9055 9.45118 24.225 10.0203C25.5445 10.5894 26.6911 11.3611 27.6646 12.3354C28.6382 13.3097 29.4102 14.4562 29.9808 15.775C30.5513 17.0937 30.8355 18.5021 30.8334 20C30.8312 21.4978 30.5466 22.9062 29.9797 24.225C29.4127 25.5437 28.6411 26.6903 27.6646 27.6645C26.6882 28.6388 25.5416 29.4109 24.225 29.9807C22.9084 30.5505 21.5001 30.8347 20 30.8333ZM20 28.6666C22.4195 28.6666 24.4688 27.827 26.1479 26.1479C27.8271 24.4687 28.6667 22.4194 28.6667 20C28.6667 17.5805 27.8271 15.5312 26.1479 13.852C24.4688 12.1729 22.4195 11.3333 20 11.3333C17.5806 11.3333 15.5313 12.1729 13.8521 13.852C12.1729 15.5312 11.3334 17.5805 11.3334 20C11.3334 22.4194 12.1729 24.4687 13.8521 26.1479C15.5313 27.827 17.5806 28.6666 20 28.6666Z" fill="#FF0000"/>
</svg>
