<svg width="41" height="45" viewBox="0 0 41 45" fill="none" xmlns="http://www.w3.org/2000/svg">
<path d="M20.2243 0C14.0803 0 9.34878 1.0061 6.12699 2.03648C2.9052 3.06685 1.05774 4.20462 1.05774 4.20462L0 4.86297V23.437C0 26.5406 1.57991 30.6994 4.76641 34.9668C7.95291 39.2343 12.8996 43.3667 19.7372 44.8903L20.2243 45L20.7115 44.8903C27.5492 43.3667 32.4958 39.2348 35.6822 34.9668C38.8687 30.6988 40.4486 26.5362 40.4486 23.4327V4.86297L39.3909 4.20462C39.3909 4.20462 37.5434 3.06685 34.3217 2.03648C31.0999 1.0061 26.3683 0 20.2243 0ZM20.2243 4.49429C25.8778 4.49429 30.1349 5.41905 32.9523 6.3201C35.0352 6.98624 35.4593 7.29897 35.9544 7.57095V23.4327C35.9544 24.5919 34.7699 28.6765 32.0789 32.2808C29.8604 35.2523 26.662 37.9888 22.4715 39.5665V35.9544H17.9772V39.5665C13.7866 37.9887 10.5882 35.2518 8.36975 32.2808C5.67883 28.677 4.49429 24.5963 4.49429 23.437V7.57095C4.98938 7.29897 5.41344 6.98624 7.49634 6.3201C10.3138 5.41905 14.5708 4.49429 20.2243 4.49429ZM12.0916 7.80357C11.8105 7.80234 11.5234 7.82176 11.2357 7.86502C10.0919 8.074 9.24224 8.62571 8.53214 9.2212C7.82653 9.83018 7.23357 10.5099 6.74144 11.2357C7.48749 10.7841 8.28323 10.4357 9.07198 10.2087C9.85623 9.98625 10.6582 9.9279 11.2357 10.1122C11.8065 10.3077 12.354 10.702 12.8597 11.1918C13.1423 11.4706 13.4225 11.8017 13.676 12.1355C13.786 12.3902 13.9423 12.6223 14.1368 12.8201L14.1412 12.8245C14.5626 13.246 15.1341 13.4828 15.73 13.4829C16.326 13.4829 16.8976 13.2461 17.319 12.8247C17.7404 12.4033 17.9772 11.8317 17.9772 11.2357C17.9771 10.6398 17.7403 10.0683 17.3188 9.64693H17.3144C17.0435 9.37692 16.7081 9.18053 16.3401 9.07637C15.7388 8.75009 15.1427 8.47242 14.4836 8.23808C13.742 7.99201 12.9349 7.80726 12.0916 7.80357ZM28.3571 7.80357C27.5138 7.80726 26.7066 7.99201 25.9651 8.23808C25.306 8.47242 24.7099 8.75009 24.1086 9.07637C23.7389 9.17985 23.402 9.37628 23.1298 9.64693C22.7084 10.0683 22.4716 10.6398 22.4715 11.2357C22.4715 11.8317 22.7082 12.4033 23.1296 12.8247C23.5511 13.2461 24.1226 13.4829 24.7186 13.4829C25.0147 13.4828 25.3079 13.4243 25.5814 13.3105C25.8548 13.1968 26.103 13.0301 26.3118 12.8201C26.5154 12.616 26.6778 12.3746 26.7902 12.1091C27.0396 11.7843 27.3152 11.463 27.589 11.1918C28.0946 10.702 28.6421 10.3077 29.2129 10.1122C29.7904 9.9279 30.5924 9.98625 31.3767 10.2087C32.1654 10.4357 32.9612 10.7841 33.7072 11.2357C33.2151 10.5099 32.6221 9.83018 31.9165 9.2212C31.2064 8.62571 30.3567 8.074 29.2129 7.86502C28.9253 7.82176 28.6382 7.80234 28.3571 7.80357ZM13.4829 15.73C11.6402 15.73 10.02 16.6199 8.98859 17.9772C10.02 19.3345 11.6402 20.2243 13.4829 20.2243C15.3255 20.2243 16.9457 19.3345 17.9772 17.9772C16.9457 16.6199 15.3255 15.73 13.4829 15.73ZM26.9658 15.73C25.1231 15.73 23.5029 16.6199 22.4715 17.9772C23.5029 19.3345 25.1231 20.2243 26.9658 20.2243C28.8084 20.2243 30.4286 19.3345 31.4601 17.9772C30.4286 16.6199 28.8084 15.73 26.9658 15.73ZM8.98859 24.7186C9.42453 25.813 9.97386 26.7873 10.5379 27.7558C10.9851 28.6232 12.0333 29.9214 13.3029 30.4989C13.9434 30.8112 14.6442 31.0409 15.3745 31.1353C16.1026 31.2386 17.0689 31.1701 17.806 30.9027C18.579 30.6532 19.243 30.2656 19.8205 29.8274C19.9698 29.7132 20.0916 29.5981 20.2243 29.485C20.9031 30.0825 21.6632 30.5551 22.6426 30.9027C23.3797 31.1701 24.3482 31.2453 25.0785 31.1397C25.8088 31.0475 26.5074 30.8134 27.1501 30.5033C28.422 29.9257 29.468 28.6276 29.9151 27.7602C30.4747 26.7916 31.0286 25.8152 31.4601 24.7186C30.3635 25.1501 29.3892 25.704 28.4229 26.2635C27.4027 26.9669 26.7894 27.1561 25.9826 27.273C25.6096 27.3292 25.2381 27.3089 24.8898 27.273C24.5392 27.2168 24.4199 27.1357 24.1524 27.0009C23.7075 26.7604 23.0409 26.1293 22.7129 25.6754L22.0501 24.7581L20.8871 24.7274C20.4466 24.7162 20.0042 24.7205 19.566 24.7318L18.4029 24.7581L17.7402 25.6754C17.4121 26.1316 16.7478 26.7626 16.3006 27.0053C16.0309 27.1378 15.9094 27.2234 15.5589 27.2774C15.2083 27.3156 14.8413 27.3313 14.466 27.2774C13.657 27.1605 13.046 26.9713 12.0257 26.2679C11.0595 25.7061 10.0829 25.1546 8.98859 24.7186Z" fill="white"/>
</svg>
