<svg width="20" height="20" viewBox="0 0 20 20" fill="none" xmlns="http://www.w3.org/2000/svg">
<path d="M2 20C0.89543 20 0 19.1046 0 18V12.8571C0 12.0682 0.639593 11.4286 1.42857 11.4286C2.21755 11.4286 2.85714 12.0682 2.85714 12.8571V17.1429H7.14285C7.93183 17.1429 8.57143 17.7824 8.57143 18.5714C8.57143 19.3604 7.93183 20 7.14286 20H2ZM18.5714 8.57143C17.7824 8.57143 17.1429 7.93183 17.1429 7.14286V2.85714H12.8571C12.0682 2.85714 11.4286 2.21755 11.4286 1.42857C11.4286 0.639593 12.0682 0 12.8571 0H18C19.1046 0 20 0.895431 20 2V7.14286C20 7.93184 19.3604 8.57143 18.5714 8.57143Z" fill="black"/>
</svg>
