<svg width="40" height="40" viewBox="0 0 40 40" fill="none" xmlns="http://www.w3.org/2000/svg">
<rect width="40" height="40" rx="6.25" fill="white"/>
<path d="M13.9901 23.2557C13.0128 23.2519 12.1719 23.0114 11.4673 22.5341C10.7666 22.0568 10.2268 21.3655 9.84801 20.4602C9.47301 19.5549 9.28741 18.4659 9.29119 17.1932C9.29119 15.9242 9.47869 14.8428 9.85369 13.9489C10.2325 13.0549 10.7723 12.375 11.473 11.9091C12.1776 11.4394 13.0166 11.2045 13.9901 11.2045C14.9635 11.2045 15.8007 11.4394 16.5014 11.9091C17.206 12.3788 17.7476 13.0606 18.1264 13.9545C18.5052 14.8447 18.6927 15.9242 18.6889 17.1932C18.6889 18.4697 18.4995 19.5606 18.1207 20.4659C17.7457 21.3712 17.2079 22.0625 16.5071 22.5398C15.8063 23.017 14.9673 23.2557 13.9901 23.2557ZM13.9901 21.2159C14.6567 21.2159 15.1889 20.8807 15.5866 20.2102C15.9844 19.5398 16.1813 18.5341 16.1776 17.1932C16.1776 16.3106 16.0866 15.5758 15.9048 14.9886C15.7268 14.4015 15.473 13.9602 15.1435 13.6648C14.8177 13.3693 14.4332 13.2216 13.9901 13.2216C13.3272 13.2216 12.7969 13.553 12.3991 14.2159C12.0014 14.8788 11.8007 15.8712 11.7969 17.1932C11.7969 18.0871 11.8859 18.8333 12.0639 19.4318C12.2457 20.0265 12.5014 20.4735 12.831 20.7727C13.1605 21.0682 13.5469 21.2159 13.9901 21.2159ZM25.0057 23.2557C24.0284 23.2519 23.1875 23.0114 22.483 22.5341C21.7822 22.0568 21.2424 21.3655 20.8636 20.4602C20.4886 19.5549 20.303 18.4659 20.3068 17.1932C20.3068 15.9242 20.4943 14.8428 20.8693 13.9489C21.2481 13.0549 21.7879 12.375 22.4886 11.9091C23.1932 11.4394 24.0322 11.2045 25.0057 11.2045C25.9792 11.2045 26.8163 11.4394 27.517 11.9091C28.2216 12.3788 28.7633 13.0606 29.142 13.9545C29.5208 14.8447 29.7083 15.9242 29.7045 17.1932C29.7045 18.4697 29.5152 19.5606 29.1364 20.4659C28.7614 21.3712 28.2235 22.0625 27.5227 22.5398C26.822 23.017 25.983 23.2557 25.0057 23.2557ZM25.0057 21.2159C25.6723 21.2159 26.2045 20.8807 26.6023 20.2102C27 19.5398 27.197 18.5341 27.1932 17.1932C27.1932 16.3106 27.1023 15.5758 26.9205 14.9886C26.7424 14.4015 26.4886 13.9602 26.1591 13.6648C25.8333 13.3693 25.4489 13.2216 25.0057 13.2216C24.3428 13.2216 23.8125 13.553 23.4148 14.2159C23.017 14.8788 22.8163 15.8712 22.8125 17.1932C22.8125 18.0871 22.9015 18.8333 23.0795 19.4318C23.2614 20.0265 23.517 20.4735 23.8466 20.7727C24.1761 21.0682 24.5625 21.2159 25.0057 21.2159Z" fill="#0D00FF"/>
<path d="M11.8931 32V27.6364H13.0465V28.4062H13.0977C13.1886 28.1506 13.3401 27.9489 13.5522 27.8011C13.7643 27.6534 14.0181 27.5795 14.3136 27.5795C14.6128 27.5795 14.8675 27.6544 15.0778 27.804C15.288 27.9517 15.4281 28.1525 15.4982 28.4062H15.5437C15.6327 28.1562 15.7937 27.9564 16.0266 27.8068C16.2615 27.6553 16.5389 27.5795 16.859 27.5795C17.2662 27.5795 17.5967 27.7093 17.8505 27.9688C18.1062 28.2263 18.234 28.5919 18.234 29.0653V32H17.0266V29.304C17.0266 29.0616 16.9622 28.8797 16.8335 28.7585C16.7047 28.6373 16.5437 28.5767 16.3505 28.5767C16.1308 28.5767 15.9594 28.6468 15.8363 28.7869C15.7132 28.9252 15.6516 29.108 15.6516 29.3352V32H14.4783V29.2784C14.4783 29.0644 14.4168 28.8939 14.2937 28.767C14.1725 28.6402 14.0124 28.5767 13.8136 28.5767C13.6791 28.5767 13.5579 28.6108 13.4499 28.679C13.3439 28.7453 13.2596 28.839 13.1971 28.9602C13.1346 29.0795 13.1033 29.2197 13.1033 29.3807V32H11.8931ZM21.1616 32.0852C20.7203 32.0852 20.3387 31.9915 20.0167 31.804C19.6966 31.6146 19.4495 31.3513 19.2752 31.0142C19.101 30.6752 19.0138 30.2822 19.0138 29.8352C19.0138 29.3845 19.101 28.9905 19.2752 28.6534C19.4495 28.3144 19.6966 28.0511 20.0167 27.8636C20.3387 27.6742 20.7203 27.5795 21.1616 27.5795C21.6029 27.5795 21.9835 27.6742 22.3036 27.8636C22.6256 28.0511 22.8737 28.3144 23.0479 28.6534C23.2222 28.9905 23.3093 29.3845 23.3093 29.8352C23.3093 30.2822 23.2222 30.6752 23.0479 31.0142C22.8737 31.3513 22.6256 31.6146 22.3036 31.804C21.9835 31.9915 21.6029 32.0852 21.1616 32.0852ZM21.1673 31.1477C21.368 31.1477 21.5356 31.0909 21.6701 30.9773C21.8046 30.8617 21.9059 30.7045 21.9741 30.5057C22.0442 30.3068 22.0792 30.0805 22.0792 29.8267C22.0792 29.5729 22.0442 29.3466 21.9741 29.1477C21.9059 28.9489 21.8046 28.7917 21.6701 28.6761C21.5356 28.5606 21.368 28.5028 21.1673 28.5028C20.9646 28.5028 20.7942 28.5606 20.6559 28.6761C20.5195 28.7917 20.4163 28.9489 20.3462 29.1477C20.2781 29.3466 20.244 29.5729 20.244 29.8267C20.244 30.0805 20.2781 30.3068 20.3462 30.5057C20.4163 30.7045 20.5195 30.8617 20.6559 30.9773C20.7942 31.0909 20.9646 31.1477 21.1673 31.1477ZM25.3065 29.4773V32H24.0962V27.6364H25.2496V28.4062H25.3008C25.3974 28.1525 25.5593 27.9517 25.7866 27.804C26.0138 27.6544 26.2894 27.5795 26.6133 27.5795C26.9163 27.5795 27.1805 27.6458 27.4059 27.7784C27.6313 27.911 27.8065 28.1004 27.9315 28.3466C28.0565 28.5909 28.119 28.8826 28.119 29.2216V32H26.9087V29.4375C26.9106 29.1705 26.8424 28.9621 26.7042 28.8125C26.5659 28.661 26.3756 28.5852 26.1332 28.5852C25.9703 28.5852 25.8263 28.6203 25.7013 28.6903C25.5782 28.7604 25.4817 28.8627 25.4116 28.9972C25.3434 29.1297 25.3084 29.2898 25.3065 29.4773Z" fill="#0D00FF"/>
</svg>
